<svg width="24" height="24" viewBox="0 0 24 24" fill="none" xmlns="http://www.w3.org/2000/svg">
<path d="M15.4943 22.2533C15.2528 22.4793 14.9509 22.6614 14.5953 22.7807C14.2396 22.9 13.8639 22.9753 13.4546 22.9941C12.7635 23.0255 12.1395 22.9313 11.5625 22.7053C10.9922 22.4856 10.4689 22.1591 9.99919 21.7197C9.31481 21.0793 8.74449 20.2443 8.30166 19.2147C7.85883 18.1851 7.53006 17.0488 7.32206 15.812C7.11406 14.5627 7.00671 13.2945 7 11.9949C7.00671 10.6954 7.11406 9.4272 7.32206 8.19042C7.53677 6.95992 7.85883 5.82986 8.29495 4.81909C8.73778 3.80205 9.3081 2.96706 10.0059 2.31414C10.4621 1.88723 10.9788 1.55449 11.5424 1.32848C12.1127 1.09619 12.7434 0.983188 13.4345 1.00202C14.2866 1.0083 14.9643 1.25315 15.4608 1.71772C15.6487 1.89351 15.7963 2.10696 15.8835 2.33925C15.9774 2.57782 16.011 2.83522 15.9573 3.11146L15.3199 6.6209C15.2729 6.89086 15.2058 7.11687 15.1186 7.31149C15.0381 7.49983 14.9307 7.66306 14.8033 7.78235C14.6422 7.93302 14.4342 8.03975 14.186 8.09625C13.9444 8.15903 13.6559 8.19042 13.3339 8.19042L12.2939 8.20925C12.1463 8.20925 12.0255 8.25948 11.9181 8.35993C11.8645 8.41015 11.8242 8.46038 11.7839 8.52316C11.7504 8.59222 11.7303 8.64872 11.7034 8.69894C11.6028 9.01913 11.5223 9.4837 11.4686 10.0864C11.4216 10.6954 11.3881 11.3295 11.3814 11.9887C11.3881 12.6604 11.4082 13.2945 11.4619 13.9097C11.5156 14.5124 11.6028 14.9707 11.7101 15.2972C11.7303 15.3411 11.7504 15.3977 11.7772 15.4604C11.8108 15.5295 11.8577 15.586 11.9181 15.6425C12.0322 15.7492 12.1597 15.7932 12.3073 15.7932L13.3204 15.7995C13.6559 15.7995 13.9444 15.8308 14.1793 15.8999C14.4275 15.9564 14.6288 16.0569 14.7965 16.2138C14.924 16.3331 15.0314 16.4838 15.1186 16.6784C15.2058 16.873 15.2729 17.099 15.3266 17.3627L15.9707 20.9161C16.0244 21.1923 16.0043 21.4372 15.9103 21.6632C15.8097 21.8829 15.6822 22.0775 15.4943 22.2533Z" stroke="#333333" stroke-width="1.5" stroke-miterlimit="10"/>
</svg>
