<svg width="130" height="153" viewBox="0 0 130 153" fill="none" xmlns="http://www.w3.org/2000/svg">
<path d="M53.2636 1.97454C53.2636 0.869966 54.1593 -0.0281952 55.2635 0.000677166C67.1543 0.311598 78.8189 3.39168 89.3254 9.00756C100.42 14.938 109.882 23.5131 116.871 33.9734C123.86 44.4337 128.162 56.4563 129.395 68.9762C130.628 81.4961 128.755 94.1269 123.94 105.75C119.126 117.373 111.52 127.629 101.795 135.61C92.0698 143.591 80.5268 149.05 68.188 151.505C55.8493 153.959 43.0956 153.332 31.0568 149.68C19.6565 146.222 9.23052 140.152 0.602565 131.964C-0.198632 131.204 -0.196896 129.935 0.584152 129.154L41.0306 88.7075C41.8117 87.9264 43.0712 87.9386 43.9474 88.6112C45.404 89.7293 47.0546 90.5795 48.8222 91.1157C51.23 91.8461 53.7807 91.9714 56.2485 91.4806C58.7162 90.9897 61.0248 89.8978 62.9698 88.3016C64.9148 86.7054 66.4361 84.6542 67.3989 82.3296C68.3618 80.005 68.7365 77.4789 68.4899 74.9749C68.2433 72.4709 67.3829 70.0664 65.9851 67.9743C64.5872 65.8822 62.695 64.1672 60.476 62.9811C58.8469 62.1104 57.0786 61.5444 55.2579 61.3051C54.1628 61.1611 53.2636 60.2791 53.2636 59.1745V1.97454Z" fill="#2D9CDB"/>
</svg>
