<svg width="24" height="24" viewBox="0 0 24 24" fill="none" xmlns="http://www.w3.org/2000/svg">
<path d="M22.25 19.75V22.25H19.75V19.75H22.25ZM16.25 19.75V22.25H13.75V19.75H16.25ZM10.25 19.75V22.25H7.75V19.75H10.25ZM4.25 19.75V22.25H1.75V19.75H4.25ZM22.25 13.75V16.25H19.75V13.75H22.25ZM16.25 13.75V16.25H13.75V13.75H16.25ZM10.25 13.75V16.25H7.75V13.75H10.25ZM4.25 13.75V16.25H1.75V13.75H4.25ZM22.25 7.75V10.25H19.75V7.75H22.25ZM16.25 7.75V10.25H13.75V7.75H16.25ZM10.25 7.75V10.25H7.75V7.75H10.25ZM4.25 7.75V10.25H1.75V7.75H4.25ZM22.25 1.75V4.25H19.75V1.75H22.25ZM16.25 1.75V4.25H13.75V1.75H16.25ZM10.25 1.75V4.25H7.75V1.75H10.25ZM4.25 1.75V4.25H1.75V1.75H4.25Z" stroke="#333333" stroke-width="1.5"/>
</svg>
